<svg width="256" height="128" version="1.1" viewBox="0 0 256 128" xmlns="http://www.w3.org/2000/svg">
 <g transform="matrix(.3085 0 0 .3085 5.409 4.298)">
  <g fill="#7d7d7d" aria-label="h">
   <path d="m203.2 304h-53.6v-117.6q0-24.8-9.2-36.4-9.2-12-26-12-7.2 0-15.2 3.2t-15.2 9.2q-7.2 5.6-13.2 13.6t-8.8 17.6v122.4h-53.6v-292h53.6v121.2q11.6-20.4 31.2-31.2 20-11.2 44-11.2 20.4 0 33.2 7.2 12.8 6.8 20 18.4t10 26.4 2.8 30.4z" fill="#7d7d7d" style="fill:#808080;stroke-linecap:round;stroke-linejoin:bevel;stroke-width:3.241;stroke:#eee"/>
  </g>
  <g>
   <g transform="translate(-2)" aria-label="e">
    <path transform="translate(2)" d="m680 170.8c-17.07 0-32.53 2.932-46.4 8.799-13.6 5.867-25.2 13.87-34.8 24-9.6 9.867-16.93 21.47-22 34.8-5.067 13.07-7.602 27.07-7.602 42 0 14.4 2.535 28.13 7.602 41.2 5.333 13.07 12.8 24.53 22.4 34.4s21.2 17.73 34.8 23.6c13.6 5.6 28.8 8.4 45.6 8.4 23.47 0 43.6-5.066 60.4-15.2 17.07-10.4 29.47-23.6 37.2-39.6l-46-12.8c-3.467 8.533-10 15.47-19.6 20.8-9.333 5.067-19.33 7.602-30 7.602-6.933 0-13.6-1.202-20-3.602s-12.13-5.865-17.2-10.4-9.2-10-12.4-16.4c-3.194-6.387-5.191-13.7-5.994-21.95l-0.0215-0.0234c-1.984-15.43-1.499-30.68 0.3633-43.43 0.8962-4.453 2.244-8.654 4.053-12.6 3.2-6.4 7.2-11.87 12-16.4s10.27-8 16.4-10.4c6.4-2.667 13.2-4 20.4-4 14.67 0 27.07 4.8 37.2 14.4 10.4 9.333 16.27 21.87 17.6 37.6h-104.7c-0.8071 12.56-1.254 17.4 0.459 34.8h158.3c0.5333-2.133 0.8008-4.8 0.8008-8 0.2667-3.2 0.3984-6.533 0.3984-10 0-14.13-2.533-27.73-7.6-40.8-4.8-13.07-12-24.53-21.6-34.4-9.333-9.867-20.8-17.73-34.4-23.6-13.33-5.867-28.53-8.799-45.6-8.799z" style="stroke-linecap:round;stroke-linejoin:bevel;stroke-width:3.241;stroke:#eee"/>
   </g>
   <g aria-label="i">
    <path d="m248.4 304v-209.6h53.6v209.6zm0-238.8v-53.2h53.6v53.2z" style="stroke-linecap:round;stroke-linejoin:bevel;stroke-width:3.241;stroke:#eee"/>
   </g>
   <g aria-label="d">
    <path d="m431.2 308c-14.4 0-27.73-2.8-40-8.4s-22.8-13.33-31.6-23.2-15.73-21.33-20.8-34.4c-4.8-13.33-7.2-27.6-7.2-42.8s2.267-29.33 6.8-42.4c4.8-13.07 11.33-24.53 19.6-34.4s18.13-17.6 29.6-23.2 24-8.4 37.6-8.4c15.47 0 29.33 3.733 41.6 11.2 12.53 7.467 22.27 17.2 29.2 29.2v-119.2h53.6v230.4c0 5.6 0.9333 9.6 2.8 12s10.07 4.333 14.6 4.6c-2 16-1.865 27.95 0 41-9.333 1.867-21.93 6.8-27.8 6.8-9.6 0-17.47-2.4-23.6-7.2s-9.6-11.07-10.4-18.8l-1.2-13.2c-7.733 13.33-18.27 23.47-31.6 30.4-13.07 6.667-26.8 10-41.2 10zm14-45.6c5.067 0 10.27-0.8 15.6-2.4 5.333-1.867 10.27-4.4 14.8-7.6s8.533-6.933 12-11.2c3.733-4.267 6.533-8.933 8.4-14v-50c-2.133-5.867-5.2-11.2-9.2-16-3.733-5.067-8.133-9.333-13.2-12.8-4.8-3.733-10-6.667-15.6-8.8-5.333-2.133-10.67-3.2-16-3.2-8 0-15.47 1.733-22.4 5.2-6.667 3.467-12.4 8.267-17.2 14.4-4.8 5.867-8.533 12.67-11.2 20.4s-4 15.73-4 24c0 8.8 1.467 16.93 4.4 24.4s6.933 14 12 19.6 11.07 10 18 13.2c7.2 3.2 15.07 4.8 23.6 4.8z" style="stroke-linecap:round;stroke-linejoin:bevel;stroke-width:3.241;stroke:#eee"/>
   </g>
  </g>
 </g>
</svg>
