<?xml version="1.0" encoding="UTF-8" standalone="no"?>
<svg
   xmlns:dc="http://purl.org/dc/elements/1.1/"
   xmlns:cc="http://creativecommons.org/ns#"
   xmlns:rdf="http://www.w3.org/1999/02/22-rdf-syntax-ns#"
   xmlns:svg="http://www.w3.org/2000/svg"
   xmlns="http://www.w3.org/2000/svg"
   width="512"
   height="256"
   version="1.1"
   viewBox="0 0 512 256"
   id="svg24">
  <defs
     id="defs28" />
  <metadata
     id="metadata2">
    <rdf:RDF>
      <cc:Work
         rdf:about="">
        <dc:format>image/svg+xml</dc:format>
        <dc:type
           rdf:resource="http://purl.org/dc/dcmitype/StillImage" />
        <dc:title></dc:title>
      </cc:Work>
    </rdf:RDF>
  </metadata>
  <g
     id="g22"
     transform="matrix(0.63943809,0,0,0.63943809,0.57248466,0.58886837)">
    <g
       fill="#7d7d7d"
       aria-label="h"
       id="g6">
      <path
         d="M 203.2,304 H 149.6 V 186.4 q 0,-24.8 -9.2,-36.4 -9.2,-12 -26,-12 -7.2,0 -15.2,3.2 -8,3.2 -15.2,9.2 -7.2,5.6 -13.2,13.6 -6,8 -8.8,17.6 V 304 H 8.4 V 12 H 62 v 121.2 q 11.6,-20.4 31.2,-31.2 20,-11.2 44,-11.2 20.4,0 33.2,7.2 12.8,6.8 20,18.4 7.2,11.6 10,26.4 2.8,14.8 2.8,30.4 z"
         fill="#7d7d7d"
         id="path4" />
    </g>
    <g
       id="g20">
      <g
         transform="translate(-2)"
         aria-label="e"
         id="g10">
        <path
           transform="translate(2)"
           d="m 680,170.8 c -17.07,0 -32.53,2.932 -46.4,8.799 -13.6,5.867 -25.2,13.87 -34.8,24 -9.6,9.867 -16.93,21.47 -22,34.8 -5.067,13.07 -7.602,27.07 -7.602,42 0,14.4 2.535,28.13 7.602,41.2 5.333,13.07 12.8,24.53 22.4,34.4 9.6,9.87 21.2,17.73 34.8,23.6 13.6,5.6 28.8,8.4 45.6,8.4 23.47,0 43.6,-5.066 60.4,-15.2 17.07,-10.4 29.47,-23.6 37.2,-39.6 l -46,-12.8 c -3.467,8.533 -10,15.47 -19.6,20.8 -9.333,5.067 -19.33,7.602 -30,7.602 -6.933,0 -13.6,-1.202 -20,-3.602 -6.4,-2.4 -12.13,-5.865 -17.2,-10.4 -5.07,-4.535 -9.2,-10 -12.4,-16.4 -3.194,-6.387 -5.191,-13.7 -5.994,-21.95 l -0.0215,-0.0234 c -1.984,-15.43 -1.499,-30.68 0.3633,-43.43 0.8962,-4.453 2.244,-8.654 4.053,-12.6 3.2,-6.4 7.2,-11.87 12,-16.4 4.8,-4.53 10.27,-8 16.4,-10.4 6.4,-2.667 13.2,-4 20.4,-4 14.67,0 27.07,4.8 37.2,14.4 10.4,9.333 16.27,21.87 17.6,37.6 h -104.7 c -0.8071,12.56 -1.254,17.4 0.459,34.8 h 158.3 c 0.5333,-2.133 0.8008,-4.8 0.8008,-8 0.2667,-3.2 0.3984,-6.533 0.3984,-10 0,-14.13 -2.533,-27.73 -7.6,-40.8 -4.8,-13.07 -12,-24.53 -21.6,-34.4 -9.333,-9.867 -20.8,-17.73 -34.4,-23.6 -13.33,-5.867 -28.53,-8.799 -45.6,-8.799 z"
           id="path8" />
      </g>
      <g
         aria-label="i"
         id="g14">
        <path
           d="M 248.4,304 V 94.4 H 302 V 304 Z m 0,-238.8 V 12 H 302 v 53.2 z"
           id="path12" />
      </g>
      <g
         aria-label="d"
         id="g18">
        <path
           d="m 431.2,308 c -14.4,0 -27.73,-2.8 -40,-8.4 -12.27,-5.6 -22.8,-13.33 -31.6,-23.2 -8.8,-9.87 -15.73,-21.33 -20.8,-34.4 -4.8,-13.33 -7.2,-27.6 -7.2,-42.8 0,-15.2 2.267,-29.33 6.8,-42.4 4.8,-13.07 11.33,-24.53 19.6,-34.4 8.27,-9.87 18.13,-17.6 29.6,-23.2 11.47,-5.6 24,-8.4 37.6,-8.4 15.47,0 29.33,3.733 41.6,11.2 12.53,7.467 22.27,17.2 29.2,29.2 V 12 h 53.6 v 230.4 c 0,5.6 0.9333,9.6 2.8,12 1.8667,2.4 10.07,4.333 14.6,4.6 -2,16 -1.865,27.95 0,41 -9.333,1.867 -21.93,6.8 -27.8,6.8 -9.6,0 -17.47,-2.4 -23.6,-7.2 -6.13,-4.8 -9.6,-11.07 -10.4,-18.8 L 504,267.6 c -7.733,13.33 -18.27,23.47 -31.6,30.4 -13.07,6.667 -26.8,10 -41.2,10 z m 14,-45.6 c 5.067,0 10.27,-0.8 15.6,-2.4 5.333,-1.867 10.27,-4.4 14.8,-7.6 4.53,-3.2 8.533,-6.933 12,-11.2 3.733,-4.267 6.533,-8.933 8.4,-14 v -50 c -2.133,-5.867 -5.2,-11.2 -9.2,-16 -3.733,-5.067 -8.133,-9.333 -13.2,-12.8 -4.8,-3.733 -10,-6.667 -15.6,-8.8 -5.333,-2.133 -10.67,-3.2 -16,-3.2 -8,0 -15.47,1.733 -22.4,5.2 -6.667,3.467 -12.4,8.267 -17.2,14.4 -4.8,5.867 -8.533,12.67 -11.2,20.4 -2.667,7.73 -4,15.73 -4,24 0,8.8 1.467,16.93 4.4,24.4 2.933,7.47 6.933,14 12,19.6 5.067,5.6 11.07,10 18,13.2 7.2,3.2 15.07,4.8 23.6,4.8 z"
           id="path16" />
      </g>
    </g>
  </g>
</svg>
